<?xml version="1.0" encoding="UTF-8"?>
<svg xmlns="http://www.w3.org/2000/svg" viewBox="0 0 100 100">
  <g fill="currentColor" stroke="currentColor" stroke-width="2" stroke-linecap="round" stroke-linejoin="round" opacity="0.9">
    <path d="M21.5 5.5C12.636 5.5 5.5 12.636 5.5 21.5v57c0 8.864 7.136 16 16 16h57c8.864 0 16-7.136 16-16v-57c0-8.864-7.136-16-16-16zm16.188 11.188 9.03 15.624A18.2 18.2 0 0 1 50 32c1.122 0 2.216.116 3.281.313l9.031-15.625 10.375 6-9.031 15.624A18.2 18.2 0 0 1 66.938 44H85v12H66.938a18.2 18.2 0 0 1-3.282 5.688l9.031 15.624-10.375 6-9.031-15.625A18.2 18.2 0 0 1 50 68a18.2 18.2 0 0 1-3.281-.313l-9.032 15.625-10.375-6 9.031-15.624A18.2 18.2 0 0 1 33.063 56H15V44h18.063a18.2 18.2 0 0 1 3.28-5.688l-9.03-15.624z"/>
    <circle cx="50" cy="50" r="12"/>
  </g>
</svg>
